<?xml version="1.0" encoding="UTF-8"?>
<svg id="Layer_1" xmlns="http://www.w3.org/2000/svg" version="1.1" viewBox="0 0 778.82 765.51">
  <!-- Generator: Adobe Illustrator 29.4.0, SVG Export Plug-In . SVG Version: 2.1.0 Build 152)  -->
  <defs>
    <style>
      .st0 {
        fill: #005eb8;
      }
    </style>
  </defs>
  <path class="st0" d="M357.06,3.88h0c6.47,0,12.71,2.09,18.01,6.02,7.93,6.03,12.53,16.02,12.01,26.08-.43,8.43-6.26,14.85-12.44,21.66-1.89,2.08-3.84,4.23-5.64,6.46-12.21,15.07-25.06,30.12-37.48,44.67-6.09,7.13-12.39,14.51-18.54,21.8l-.08.1-.08.1c-3.06,4.09-4.25,8.59-3.45,13,.85,4.63,2.99,8.48,6.41,11.45,3.03,2.6,6.97,4.03,11.1,4.03.4,0,1.35,0,2.43-.46,4.3-.65,8.01-2.79,10.55-6.1l15.88-18.23,4-4.59,32.25-37.01c8.37-9.6,16.26-19.75,23.9-29.57,5.16-6.64,10.5-13.5,15.91-20.12l1.29-1.59c7.01-8.59,14.27-17.48,24.13-20.34,2.73-.79,5.56-1.19,8.41-1.19,6.85,0,13.62,2.33,19.04,6.58,12.45,9.74,15.02,28.16,5.73,41.06-20.81,28.99-46.67,55.47-71.67,81.07-9.33,9.55-18.96,19.42-28.15,29.24l-.05.06-.05.06c-3.07,3.53-4.47,7.97-4.03,12.91.46,4.51,2.7,8.79,6.13,11.79,3.02,2.6,6.97,4.03,11.1,4.03,5.18,0,9.87-2.04,13.12-5.68l71.84-76.73c.14-.15.32-.31.54-.47,2.46-1.88,4.82-4.12,6.34-6l.8-1c.26-.22.64-.55.96-.92,5.76-6.36,14-10,22.61-10,7.45,0,14.55,2.73,20.02,7.68,5.86,5.31,9.43,12.74,10.03,20.91.24,7.54-1.99,14.51-6.46,20.18-.45.4-.85.81-1.2,1.2l-91.52,93.15-.09.09-.09.1c-3.07,3.53-4.47,7.97-4.03,12.91.48,4.69,2.48,8.53,6.13,11.79,3.02,2.6,6.97,4.03,11.1,4.03,8.76,0,14.76-6.68,19.59-12.04,1.05-1.16,2.04-2.27,2.99-3.23l2.13-2.15c6.48-6.56,13.19-13.35,19.67-20.15.93-.97,1.86-1.97,2.79-2.98,5.93-6.39,12.07-13,20.18-14.55,1.33-.25,2.7-.38,4.07-.38,8.14,0,17.34,4.65,25.22,12.75,2.6,2.67,3.82,6.39,3.27,9.93-.48,3.13-2.3,5.7-5.11,7.21-.21.11-160.04,86.11-166.9,89.81-.55.3-.99.63-1.34.88l-.07.05-28.24,15.17c-.67.36-1.36.55-2.04.55-1.39,0-2.77-.77-3.59-1.99-.56-.84-1.07-2.2-.34-3.96l27.61-66.35c.18-.42.33-.85.46-1.28,8.39-27.31,7.71-67.04-21.76-89.14-11.36-8.52-24.76-13.02-38.79-13.02-3.14,0-6.33.23-9.51.68-17.13,2.5-32.16,11.4-42.28,25.01-11.02,14.34-16.72,33.45-22.24,51.93l-.48,1.65c-2.75,8.77-6.02,18.95-9.44,28-17.08,45.1-41.94,82.81-68.26,122.74-6.56,9.94-13.34,20.22-19.9,30.51-3.42,5.35-6.53,10.95-9.23,16.63-6.79,14.24-14.15,31.29-17.19,49.85-2,12.2-3.1,24.69-3.26,37.13,0,.5-.03,1.37-.07,2.54-.12,3.88-.32,10.39-.24,16.66.02,1.49-.66,2.5-1.22,3.07-.82.83-1.93,1.3-3.05,1.3-.66,0-1.3-.16-1.92-.5-11.64-6.16-22.8-13.51-33.18-21.83-31.72-25.3-55.28-59.1-68.14-97.69-6.77-20.94-12.95-45.57-7.48-69.55,13.47-64.83,20.25-119.09,21.32-170.78.47-22.96-.48-46.13-1.42-68.55l-.05-1.13c-.77-18.37-.27-34.27,13.59-42.98,4.87-2.83,10.33-4.32,15.78-4.32,2.41,0,4.79.3,7.16.91,13.64,3.21,21.62,12.82,26.68,32.13,3.03,11.58,3.11,23.45,3.2,36.03.01,1.85.02,3.7.05,5.55.11,9.29.12,18.73.14,27.87,0,5.48.01,10.96.04,16.44.09,17.29.65,34.83,1.72,53.62.2,3.61.46,8.08,2.69,12.09,2.48,4.45,7.33,7.1,12.97,7.1,3.02,0,5.91-.78,8.37-2.24,1.1-.66,2.23-1.54,3.36-2.61,6.04-5.74,11.06-12.82,15.91-19.67,2.56-3.61,4.97-7.02,7.51-10.21,4.78-6.02,9.74-12.17,14.54-18.13,3.12-3.88,6.23-7.74,9.29-11.54l13.6-16.97c.88-1.06,1.63-2.24,2.2-3.48L330.43,18.83s.06-.08.18-.17c1-.87,1.83-1.76,2.53-2.72,5.01-6.47,12.01-10.63,19.73-11.73,1.39-.2,2.82-.31,4.23-.31M323.17,218.65c8.29,0,15.96,3.1,21.64,8.74l.14.14.15.12c8.76,7.28,9.49,24.34,7.23,37.97-1.12,7.9-2.15,12.6-5.29,19.65-3.94,9.43-10.91,25.94-18.31,43.41-8.75,20.69-17.79,42.09-23.67,56.18-2.69,5.61-8.12,17.11-.26,27.06,3.29,4.16,7.89,6.37,13.31,6.37,4.67,0,9.91-1.7,14.77-4.78,9.07-4.87,26.68-14.34,42.4-22.77l21.28-11.44c11.11-5.96,30.68-16.56,53.34-28.83,59.9-32.43,141.92-76.83,170.93-91.61,4.43-1.92,9.04-2.89,13.72-2.89,14.45,0,29.44,9.91,30.14,28.88.41,10.48-6.86,22.47-16.55,27.3l-.06.03-.06.03c-10.52,5.67-40.63,21.88-75.75,40.79-43.96,23.66-95.75,51.55-126.78,68.27l-.07.04-.07.04c-.98.58-1.96,1.08-2.91,1.57-2.97,1.53-6.05,3.11-8.55,6.55-4.05,5.64-4.63,12.59-1.55,18.59,2.98,5.81,8.87,9.42,15.37,9.42.34,0,.7,0,1.05-.03l.83-.05.75-.34c25.46-11.48,88.47-45.85,144.06-76.18,36.58-19.95,68.16-37.18,83.92-45.12,4.33-2.17,8.76-4.69,13.44-7.36,11.54-6.56,23.46-13.35,34.02-14.76,1.47-.22,2.94-.33,4.4-.33,10.21,0,19.8,5.83,25.02,15.23,5.21,9.4,5.05,20.27-.44,29.1l-.04.06-.04.06c-5.42,9.35-16.95,15.23-27.15,20.41-1.65.84-3.26,1.66-4.73,2.43-19.74,9.85-89.67,45.48-151.36,76.91-33.39,17.01-65.29,33.27-87.65,44.63-2.76,1.38-5.63,3.2-7.89,7.05-3.38,5.67-3.57,12-.51,17.4,3.12,5.49,9.01,8.9,15.38,8.9,3.18,0,6.39-.88,9.29-2.56,27.02-13.27,62.45-31.59,96.73-49.32,56.35-29.14,114.61-59.27,139.99-69.34,2.87-.9,5.78-1.35,8.64-1.35,10.45,0,20.21,6.08,25.48,15.86,5.12,9.52,4.69,20.5-1.17,29.39-3.6,5.54-10.13,11.07-16.64,14.11l-.08.04-.08.04c-11.54,5.97-36.38,18.42-65.16,32.83-55.85,27.97-132.36,66.27-172.58,87.84-7.87,4.08-12.67,11.5-12.23,18.89.38,6.39,4.64,11.56,11.68,14.2l.1.04.1.03c1.88.61,3.66.9,5.45.9,4.46,0,8.07-1.87,11.9-3.85l1.19-.62c22.05-10.96,54.75-27.31,86.38-43.13,33.06-16.53,64.29-32.15,77.04-38.44l.1-.05.1-.05c5.91-3.3,13.19-5.19,19.96-5.19,5.4,0,13.13,1.18,19.43,6.8l.07.06.07.06c6.63,5.46,10.36,13.63,10.26,22.44-.11,9.2-4.41,18.04-11.5,23.67-18.87,11.92-68.02,38.37-115.55,63.96-33.98,18.29-69.11,37.2-93.2,50.81-7.44,3.92-15.6,8.37-24.24,13.08-16.63,9.06-33.82,18.44-48.52,25.51-22.51,10.5-46.31,16.81-70.76,18.75-5.64.5-11.41.75-17.13.75-64.56,0-128.42-31.56-166.66-82.42-39.94-51.99-54.21-123.06-36.35-181.04,4.17-13.54,10.5-26.61,19.91-41.13,3.63-5.6,7.75-11.51,13.38-19.16,22.52-30.66,40.49-65.87,56.53-99.35,8.65-18.04,16.21-36.82,23.51-54.97,6.49-16.12,13.2-32.79,20.6-48.75,4.63-9.98,14.73-16.18,26.37-16.18"/>
</svg>