<?xml version="1.0" encoding="UTF-8"?>
<svg id="Layer_1" xmlns="http://www.w3.org/2000/svg" version="1.1" viewBox="0 0 1450 674.73">
  <!-- Generator: Adobe Illustrator 29.4.0, SVG Export Plug-In . SVG Version: 2.1.0 Build 152)  -->
  <defs>
    <style>
      .st0 {
        isolation: isolate;
      }

      .st1 {
        fill: #005eb8;
      }

      .st2 {
        fill: #fff;
      }
    </style>
  </defs>
  <rect class="st1" x="1.87" y="2.54" width="1446.26" height="670.33" rx="64" ry="64"/>
  <g class="st0">
    <g class="st0">
      <path class="st2" d="M728.49,439.87v-227.48h61.59c51.17,0,79.84,17.92,79.84,57.36,0,25.42-11.73,45.3-46.93,54.1v.65c34.87,3.26,52.79,26.07,52.79,54.75,0,41.06-28.35,60.62-85.71,60.62h-61.59ZM782.59,309.51c34.22,0,54.75-6.84,54.75-36.5,0-23.14-17.27-33.89-42.69-33.89h-33.57v70.39h21.51ZM786.83,413.15c36.17,0,54.42-11.08,54.42-36.83s-15.97-40.09-57.68-40.09h-22.49v76.91h25.75Z"/>
      <path class="st2" d="M921.74,404.03c15.64,6.52,33.89,11.08,47.26,11.08,21.51,0,44.65-12.38,44.65-37.15,0-16.62-8.15-27.7-44-44-29.33-13.36-53.77-28.03-53.77-63.55,0-37.8,28.68-61.92,73-61.92,15.32,0,32.92,2.61,48.56,8.15l-4.56,29.98c-17.6-7.17-27.38-9.45-42.37-9.45-25.42,0-40.08,11.08-40.08,30.31,0,21.18,23.46,29.66,42.69,39.43,24.77,12.38,55.08,27.38,55.08,69.09,0,44-31.61,67.79-82.78,67.79-16.62,0-30.63-4.24-46.93-9.45l3.26-30.31Z"/>
      <path class="st2" d="M1092.18,439.87v-227.48h32.59v198.8h95.16v28.68h-127.75Z"/>
    </g>
  </g>
  <path class="st2" d="M408.7,153.97h0c3.14,0,6.17,1.02,8.75,2.92,3.85,2.93,6.08,7.78,5.83,12.66-.21,4.09-3.04,7.21-6.04,10.52-.92,1.01-1.86,2.05-2.74,3.13-5.93,7.32-12.16,14.62-18.2,21.69-2.96,3.46-6.02,7.04-9,10.58l-.04.05-.04.05c-1.49,1.99-2.07,4.17-1.67,6.31.41,2.25,1.45,4.11,3.11,5.56,1.47,1.26,3.38,1.96,5.39,1.96.2,0,.66,0,1.18-.23,2.09-.32,3.89-1.35,5.12-2.96l7.71-8.85,1.94-2.23,15.66-17.97c4.06-4.66,7.89-9.59,11.6-14.36,2.51-3.22,5.1-6.56,7.73-9.76l.63-.77c3.4-4.17,6.93-8.49,11.71-9.87,1.32-.38,2.7-.58,4.08-.58,3.33,0,6.61,1.13,9.24,3.19,6.04,4.73,7.29,13.67,2.78,19.94-10.1,14.07-22.66,26.93-34.79,39.36-4.53,4.64-9.21,9.43-13.67,14.19l-.03.03-.03.03c-1.49,1.71-2.17,3.87-1.95,6.27.23,2.19,1.31,4.27,2.98,5.72,1.47,1.26,3.38,1.96,5.39,1.96,2.52,0,4.79-.99,6.37-2.75l34.88-37.25c.07-.07.16-.15.26-.23,1.19-.91,2.34-2,3.07-2.91l.39-.49c.13-.11.31-.26.47-.44,2.8-3.09,6.8-4.86,10.98-4.86,3.62,0,7.07,1.32,9.72,3.73,2.85,2.58,4.58,6.18,4.87,10.15.12,3.66-.96,7.04-3.14,9.79-.22.2-.41.39-.58.59l-44.43,45.22-.05.05-.04.05c-1.49,1.71-2.17,3.87-1.96,6.27.24,2.28,1.2,4.14,2.98,5.72,1.47,1.26,3.38,1.96,5.39,1.96,4.25,0,7.17-3.24,9.51-5.85.51-.57.99-1.1,1.45-1.57l1.03-1.05c3.15-3.19,6.4-6.48,9.55-9.78.45-.47.9-.96,1.36-1.45,2.88-3.1,5.86-6.31,9.79-7.06.65-.12,1.31-.19,1.98-.19,3.96,0,8.42,2.26,12.24,6.19,1.26,1.3,1.85,3.1,1.59,4.82-.23,1.52-1.12,2.77-2.48,3.5-.1.05-77.7,41.81-81.03,43.6-.27.15-.48.3-.65.43l-.03.02-13.71,7.36c-.33.18-.66.26-.99.26-.68,0-1.34-.37-1.74-.97-.27-.41-.52-1.07-.17-1.92l13.41-32.21c.09-.21.16-.41.23-.62,4.07-13.26,3.74-32.55-10.56-43.28-5.51-4.14-12.02-6.32-18.83-6.32-1.53,0-3.08.11-4.62.33-8.31,1.21-15.61,5.53-20.53,12.14-5.35,6.96-8.12,16.24-10.8,25.22l-.24.8c-1.33,4.26-2.92,9.2-4.58,13.59-8.29,21.9-20.36,40.21-33.14,59.59-3.18,4.83-6.47,9.82-9.66,14.81-1.66,2.6-3.17,5.32-4.48,8.07-3.3,6.91-6.87,15.19-8.34,24.2-.97,5.92-1.5,11.99-1.58,18.03,0,.24-.02.67-.03,1.23-.06,1.89-.16,5.04-.12,8.09,0,.72-.32,1.21-.59,1.49-.4.4-.94.63-1.48.63-.32,0-.63-.08-.93-.24-5.65-2.99-11.07-6.56-16.11-10.6-15.4-12.28-26.84-28.69-33.08-47.43-3.29-10.17-6.29-22.12-3.63-33.77,6.54-31.47,9.83-57.82,10.35-82.92.23-11.14-.24-22.4-.69-33.28l-.02-.55c-.37-8.92-.13-16.64,6.6-20.87,2.37-1.37,5.01-2.1,7.66-2.1,1.17,0,2.33.14,3.48.44,6.62,1.56,10.5,6.22,12.95,15.6,1.47,5.62,1.51,11.39,1.55,17.49,0,.9.01,1.8.02,2.69.05,4.51.06,9.09.07,13.53,0,2.66,0,5.32.02,7.98.04,8.39.32,16.91.83,26.03.1,1.75.22,3.93,1.31,5.87,1.2,2.16,3.55,3.45,6.3,3.45,1.47,0,2.87-.38,4.06-1.09.54-.32,1.09-.75,1.63-1.27,2.93-2.79,5.37-6.22,7.73-9.55,1.24-1.75,2.42-3.41,3.65-4.96,2.32-2.92,4.73-5.91,7.06-8.8,1.52-1.88,3.03-3.76,4.51-5.6l6.6-8.24c.43-.52.79-1.09,1.07-1.69l70.53-88.17s.03-.04.09-.09c.49-.42.89-.85,1.23-1.32,2.43-3.14,5.83-5.16,9.58-5.69.68-.1,1.37-.15,2.06-.15M392.25,258.24c4.02,0,7.75,1.51,10.51,4.24l.07.07.07.06c4.25,3.54,4.61,11.82,3.51,18.43-.55,3.84-1.04,6.12-2.57,9.54-1.91,4.58-5.3,12.59-8.89,21.07-4.25,10.05-8.64,20.43-11.5,27.28-1.31,2.72-3.95,8.31-.13,13.13,1.6,2.02,3.83,3.09,6.46,3.09,2.27,0,4.81-.82,7.17-2.32,4.4-2.36,12.95-6.96,20.58-11.06l10.33-5.55c5.4-2.9,14.9-8.04,25.89-13.99,29.08-15.75,68.9-37.3,82.99-44.48,2.15-.93,4.39-1.4,6.66-1.4,7.01,0,14.29,4.81,14.63,14.02.2,5.09-3.33,10.91-8.04,13.25l-.03.02-.03.02c-5.11,2.75-19.73,10.62-36.78,19.8-21.34,11.49-46.49,25.03-61.55,33.15l-.03.02-.03.02c-.47.28-.95.52-1.41.76-1.44.74-2.94,1.51-4.15,3.18-1.97,2.74-2.25,6.11-.75,9.03,1.45,2.82,4.3,4.57,7.46,4.57.17,0,.34,0,.51-.01l.4-.02.36-.16c12.36-5.57,42.95-22.26,69.94-36.99,17.76-9.69,33.09-18.05,40.74-21.91,2.11-1.05,4.25-2.28,6.52-3.57,5.6-3.19,11.39-6.48,16.52-7.17.71-.11,1.43-.16,2.13-.16,4.96,0,9.61,2.83,12.15,7.39,2.53,4.56,2.45,9.84-.21,14.13l-.02.03-.02.03c-2.63,4.54-8.23,7.39-13.18,9.91-.8.41-1.58.81-2.3,1.18-9.58,4.78-43.53,22.08-73.49,37.34-16.21,8.26-31.7,16.15-42.55,21.67-1.34.67-2.73,1.55-3.83,3.42-1.64,2.75-1.73,5.83-.24,8.45,1.51,2.67,4.37,4.32,7.47,4.32,1.55,0,3.1-.43,4.51-1.24,13.12-6.44,30.32-15.34,46.96-23.94,27.36-14.15,55.64-28.77,67.97-33.66,1.39-.44,2.8-.66,4.2-.66,5.07,0,9.81,2.95,12.37,7.7,2.49,4.62,2.28,9.95-.57,14.27-1.75,2.69-4.92,5.38-8.08,6.85l-.04.02-.04.02c-5.6,2.9-17.66,8.94-31.63,15.94-27.12,13.58-64.26,32.18-83.79,42.65-3.82,1.98-6.15,5.58-5.94,9.17.19,3.1,2.25,5.61,5.67,6.89l.05.02.05.02c.91.29,1.78.44,2.64.44,2.16,0,3.92-.91,5.78-1.87l.58-.3c10.7-5.32,26.58-13.26,41.94-20.94,16.05-8.03,31.21-15.61,37.4-18.67l.05-.02.05-.03c2.87-1.6,6.4-2.52,9.69-2.52,2.62,0,6.38.57,9.43,3.3l.03.03.03.03c3.22,2.65,5.03,6.62,4.98,10.9-.05,4.47-2.14,8.76-5.58,11.49-9.16,5.79-33.02,18.63-56.1,31.05-16.5,8.88-33.55,18.06-45.25,24.67-3.61,1.9-7.57,4.06-11.77,6.35-8.07,4.4-16.42,8.95-23.56,12.39-10.93,5.1-22.48,8.16-34.35,9.1-2.74.24-5.54.37-8.32.37-31.35,0-62.35-15.33-80.91-40.01-19.39-25.24-26.32-59.75-17.65-87.9,2.02-6.57,5.1-12.92,9.67-19.97,1.76-2.72,3.76-5.59,6.49-9.3,10.93-14.89,19.65-31.98,27.45-48.23,4.2-8.76,7.87-17.87,11.42-26.69,3.15-7.83,6.4-15.92,10-23.67,2.25-4.84,7.15-7.85,12.81-7.85"/>
</svg>