<svg width="690" height="470" viewBox="0 0 690 470" fill="none" xmlns="http://www.w3.org/2000/svg">
<rect width="690" height="470" fill="#005EB8"/>
<line x1="12" y1="139" x2="678" y2="139" stroke="#B2CFE9" stroke-width="4" stroke-linecap="round" stroke-dasharray="8 12"/>
<line x1="190" y1="12" x2="190" y2="458" stroke="#B2CFE9" stroke-width="4" stroke-linecap="round" stroke-dasharray="8 12"/>
<rect x="49" y="79" width="104.108" height="214" rx="12" fill="#669ED4" stroke="#B2CFE9" stroke-width="4" stroke-linejoin="round"/>
<path d="M90.1094 116H60.1094V104H90.1094V116ZM85.9854 104.825C83.8105 104.825 81.636 105.575 81.6357 108.125C81.6357 110.9 85.4602 110.301 85.4609 111.875C85.4609 112.85 84.1854 113 83.3604 113C82.5356 113 81.486 112.775 80.9609 112.476L80.3604 114.5C81.1853 114.8 82.3854 115.025 83.3604 115.025C85.6854 115.025 88.1602 114.35 88.1602 111.65C88.1601 108.725 84.3359 109.175 84.3359 107.825C84.3361 107 85.161 106.851 86.2109 106.851C87.0641 106.851 87.6874 107.023 88.1816 107.217L88.9854 105.275C88.3103 104.975 87.1852 104.825 85.9854 104.825ZM63.0352 105.125L60.9355 114.875H63.4102L64.7607 108.125H64.8359L66.8604 114.875H70.0859L72.1855 105.125H69.7109L68.3604 111.875H68.2852L66.3359 105.125H63.0352ZM73.0859 105.125L71.1357 114.875H73.6855L74.5859 110.676H77.6602L76.8359 114.875H79.4609L81.4854 105.125H78.8604L78.0352 108.801H75.0352L75.7852 105.125H73.0859Z" fill="#2978C3"/>
<path opacity="0.6" d="M142.457 290.848L59.6543 290.848C54.9599 290.848 51.1543 287.042 51.1543 282.348L51.1543 257.972L150.957 257.972L150.957 282.348C150.957 287.042 147.151 290.848 142.457 290.848Z" fill="#005EB8" stroke="#B2CFE9"/>
<path d="M131.127 79.5V80.915C131.127 85.0572 127.769 88.415 123.627 88.415H78.4844C74.3422 88.415 70.9844 85.0572 70.9844 80.915V79.5H131.127Z" fill="#B2CFE9" stroke="#B2CFE9"/>
<rect x="360.5" y="52.5" width="277" height="194" rx="3.5" fill="#425563" stroke="#212B32" stroke-width="5" stroke-linejoin="round"/>
<rect x="361" y="54" width="276" height="16" fill="#212B32"/>
<path opacity="0.7" d="M381.65 89.95L400.975 101.9V106.725L381.8 118.675L379.05 114.725L396.175 104.325L379.05 94.075L381.65 89.95ZM404.98 129.15V124.525H429.98V129.15H404.98Z" fill="#D8DDE0"/>
<rect x="85" y="161" width="362" height="259" rx="12" fill="#669ED4" stroke="#F0F5FB" stroke-width="4" stroke-linejoin="round"/>
<path d="M447 183L85 183L85 169C85 164.582 88.5817 161 93 161L439 161C443.418 161 447 164.582 447 169L447 183Z" fill="#F0F5FB"/>
<rect x="174" y="163" width="184" height="16" rx="6" fill="#669ED4" fill-opacity="0.5"/>
<circle cx="102" cy="171" r="5" fill="#669ED4" fill-opacity="0.5"/>
<circle cx="117" cy="171" r="5" fill="#669ED4" fill-opacity="0.5"/>
<circle cx="132" cy="171" r="5" fill="#669ED4" fill-opacity="0.5"/>
<rect opacity="0.5" x="87" y="183" width="358" height="46" fill="#005EB8"/>
<path d="M142 214H102V198H142V214ZM136.5 199.101C133.6 199.101 130.7 200.1 130.7 203.5C130.7 207.2 135.8 206.4 135.801 208.5C135.801 209.8 134.1 210 133 210C131.9 210 130.501 209.701 129.801 209.301L129 212C130.1 212.4 131.7 212.7 133 212.7C136.1 212.7 139.4 211.8 139.4 208.2C139.4 204.301 134.301 204.9 134.301 203.101C134.301 202.001 135.401 201.801 136.801 201.801C137.938 201.801 138.769 202.03 139.428 202.288L140.5 199.7C139.6 199.3 138.1 199.101 136.5 199.101ZM105.9 199.5L103.101 212.5H106.4L108.2 203.5H108.301L111 212.5H115.301L118.101 199.5H114.801L113 208.5H112.9L110.301 199.5H105.9ZM119.301 199.5L116.7 212.5H120.101L121.301 206.9H125.4L124.301 212.5H127.801L130.5 199.5H127L125.9 204.4H121.9L122.9 199.5H119.301Z" fill="#7DADDA"/>
<rect x="158" y="253" width="175" height="24" rx="4" fill="#B2CFE9"/>
<rect x="317" y="196" width="113" height="20" rx="4" fill="#669ED4"/>
<path opacity="0.3" d="M410 196H426C428.209 196 430 197.791 430 200V212C430 214.209 428.209 216 426 216H410V196Z" fill="#B2CFE9"/>
<rect x="158" y="292" width="137" height="12" rx="6" fill="#B2CFE9"/>
<rect x="158" y="310" width="165" height="12" rx="6" fill="#B2CFE9"/>
<rect x="158" y="328" width="100" height="12" rx="6" fill="#B2CFE9"/>
<rect opacity="0.9" x="188" y="361" width="79" height="12" rx="6" fill="white"/>
<g opacity="0.9">
<path d="M170.001 357C167.522 357 165.131 357.921 163.292 359.584C161.454 361.247 160.299 363.533 160.051 366H171.691L167.741 362.05C167.577 361.859 167.491 361.613 167.501 361.361C167.511 361.109 167.615 360.871 167.793 360.692C167.971 360.514 168.21 360.41 168.462 360.4C168.713 360.391 168.959 360.476 169.151 360.64L174.811 366.29C174.905 366.383 174.979 366.494 175.03 366.615C175.08 366.737 175.107 366.868 175.107 367C175.107 367.132 175.08 367.263 175.03 367.385C174.979 367.506 174.905 367.617 174.811 367.71L169.151 373.36C168.963 373.546 168.71 373.651 168.446 373.651C168.182 373.651 167.928 373.546 167.741 373.36C167.555 373.173 167.45 372.919 167.45 372.655C167.45 372.391 167.555 372.137 167.741 371.95L171.691 368H160.051C160.244 369.925 160.992 371.753 162.204 373.262C163.416 374.771 165.04 375.896 166.878 376.5C168.716 377.104 170.691 377.162 172.561 376.667C174.432 376.171 176.119 375.143 177.417 373.708C178.715 372.273 179.569 370.492 179.875 368.581C180.181 366.67 179.926 364.712 179.141 362.943C178.356 361.174 177.074 359.671 175.452 358.616C173.83 357.562 171.936 357 170.001 357V357Z" fill="white"/>
</g>
<rect x="552" y="139" width="56" height="72" fill="#F0F5FB"/>
<path opacity="0.7" d="M597.224 195H589.784L586.904 187.32H573.32L570.392 195H563.432L576.488 161.496H584.072L597.224 195ZM585.032 182.04L580.184 168.216H580.088L575.24 182.04H585.032Z" fill="#337EC6"/>
<rect x="552" y="241" width="56" height="72" fill="#F0F5FB"/>
<path opacity="0.7" d="M580.456 297H568.888V263.496H580.6C587.416 263.496 591.4 266.424 591.4 272.04C591.4 275.928 588.904 278.808 584.728 279.576V279.672C589.384 280.104 592.408 283.272 592.408 287.304C592.408 293.88 587.704 297 580.456 297ZM575.608 277.032H578.248C582.664 277.032 584.68 275.592 584.68 272.952C584.68 270.408 583.336 268.776 578.68 268.776H575.608V277.032ZM575.608 291.72H578.824C583.192 291.72 585.688 290.184 585.688 287.064C585.688 283.56 583.432 282.024 578.968 282.024H575.608V291.72Z" fill="#337EC6"/>
<rect x="552" y="343" width="56" height="72" fill="#F0F5FB"/>
<path opacity="0.7" d="M592.984 392.904L593.272 398.52C590.776 399.096 588.184 399.576 585.64 399.576C574.168 399.576 567.256 393.624 567.256 382.824C567.256 371.496 574.12 364.92 585.64 364.92C587.944 364.92 590.92 365.4 593.224 366.312L592.744 371.976C590.296 370.584 587.992 370.2 585.496 370.2C578.728 370.2 574.264 375.336 574.264 382.344C574.264 389.4 578.68 394.296 585.64 394.296C587.992 394.296 591.208 393.816 592.984 392.904Z" fill="#337EC6"/>
<path opacity="0.8" d="M497.31 270C497.848 270 498.367 270.177 498.807 270.508C499.466 271.018 499.849 271.861 499.805 272.711C499.77 273.423 499.285 273.965 498.771 274.54C498.614 274.716 498.452 274.898 498.303 275.086C497.288 276.359 496.22 277.63 495.188 278.859C494.682 279.461 494.158 280.084 493.647 280.7L493.64 280.708L493.634 280.717C493.379 281.062 493.28 281.442 493.347 281.815C493.418 282.206 493.595 282.531 493.88 282.782C494.131 283.002 494.459 283.122 494.802 283.122C494.835 283.122 494.914 283.122 495.004 283.083C495.361 283.029 495.67 282.848 495.881 282.568L497.201 281.029L497.533 280.641L500.213 277.515C500.909 276.704 501.565 275.847 502.2 275.018C502.629 274.457 503.072 273.877 503.522 273.318L503.629 273.184C504.212 272.459 504.815 271.708 505.635 271.466C505.862 271.399 506.097 271.366 506.334 271.366C506.903 271.366 507.466 271.562 507.916 271.921C508.951 272.744 509.164 274.3 508.392 275.389C506.663 277.838 504.514 280.074 502.436 282.236C501.66 283.043 500.86 283.877 500.096 284.706L500.092 284.711L500.088 284.716C499.833 285.014 499.716 285.389 499.753 285.806C499.791 286.187 499.977 286.549 500.262 286.802C500.513 287.022 500.842 287.143 501.185 287.143C501.615 287.143 502.005 286.97 502.275 286.663L508.246 280.182C508.258 280.17 508.273 280.156 508.291 280.143C508.495 279.984 508.691 279.795 508.818 279.636L508.884 279.551C508.906 279.533 508.937 279.505 508.964 279.474C509.443 278.937 510.128 278.629 510.843 278.629C511.462 278.629 512.052 278.86 512.507 279.278C512.994 279.726 513.291 280.354 513.341 281.044C513.361 281.681 513.175 282.269 512.804 282.748C512.766 282.782 512.733 282.817 512.704 282.849L505.098 290.717L505.09 290.724L505.083 290.733C504.828 291.031 504.711 291.406 504.748 291.823C504.788 292.219 504.954 292.544 505.257 292.819C505.508 293.039 505.837 293.159 506.18 293.159C506.908 293.159 507.407 292.595 507.808 292.142C507.895 292.044 507.978 291.951 508.057 291.87L508.234 291.688C508.772 291.134 509.33 290.561 509.868 289.986C509.946 289.904 510.023 289.82 510.1 289.735C510.593 289.195 511.103 288.637 511.777 288.506C511.888 288.485 512.002 288.474 512.116 288.474C512.792 288.474 513.557 288.866 514.212 289.55C514.428 289.776 514.529 290.09 514.483 290.389C514.444 290.653 514.292 290.871 514.059 290.998C514.041 291.007 500.758 298.271 500.188 298.583C500.142 298.609 500.105 298.636 500.076 298.658L500.07 298.662L497.723 299.943C497.668 299.973 497.61 299.989 497.554 299.989C497.438 299.989 497.324 299.924 497.256 299.821C497.209 299.75 497.167 299.636 497.227 299.487L499.522 293.883C499.537 293.848 499.549 293.811 499.56 293.775C500.257 291.468 500.201 288.113 497.752 286.246C496.808 285.527 495.694 285.147 494.528 285.147C494.267 285.147 494.002 285.166 493.738 285.204C492.314 285.415 491.065 286.167 490.224 287.316C489.308 288.528 488.834 290.142 488.375 291.702L488.335 291.842C488.107 292.582 487.835 293.442 487.551 294.207C486.131 298.016 484.065 301.201 481.878 304.573C481.333 305.413 480.769 306.281 480.224 307.15C479.94 307.602 479.681 308.075 479.457 308.554C478.892 309.757 478.281 311.197 478.028 312.765C477.862 313.795 477.77 314.85 477.757 315.901C477.757 315.943 477.755 316.016 477.751 316.115C477.741 316.443 477.725 316.993 477.731 317.522C477.733 317.648 477.677 317.733 477.63 317.781C477.562 317.852 477.47 317.891 477.377 317.891C477.322 317.891 477.268 317.878 477.217 317.849C476.25 317.329 475.322 316.708 474.459 316.005C471.823 313.869 469.865 311.014 468.796 307.755C468.234 305.986 467.72 303.906 468.175 301.88C469.294 296.405 469.858 291.822 469.946 287.457C469.986 285.518 469.907 283.561 469.828 281.667L469.824 281.572C469.76 280.02 469.802 278.677 470.954 277.942C471.359 277.703 471.812 277.577 472.265 277.577C472.466 277.577 472.663 277.602 472.86 277.654C473.994 277.925 474.657 278.736 475.078 280.367C475.33 281.345 475.336 282.348 475.344 283.41C475.344 283.567 475.345 283.723 475.348 283.879C475.357 284.664 475.358 285.461 475.359 286.233C475.359 286.696 475.36 287.159 475.363 287.621C475.37 289.082 475.417 290.563 475.506 292.15C475.522 292.455 475.544 292.832 475.729 293.171C475.935 293.547 476.338 293.771 476.807 293.771C477.058 293.771 477.298 293.705 477.503 293.582C477.594 293.526 477.688 293.452 477.782 293.361C478.284 292.876 478.701 292.278 479.104 291.7C479.317 291.395 479.517 291.107 479.729 290.838C480.126 290.329 480.538 289.81 480.937 289.306C481.196 288.979 481.455 288.653 481.709 288.332L482.839 286.898C482.912 286.809 482.975 286.709 483.022 286.605L495.097 271.263C495.097 271.263 495.102 271.256 495.112 271.248C495.195 271.175 495.264 271.1 495.322 271.019C495.739 270.472 496.321 270.121 496.962 270.028C497.078 270.011 497.197 270.002 497.314 270.002M494.494 288.139C495.183 288.139 495.82 288.401 496.292 288.877L496.304 288.889L496.316 288.899C497.044 289.514 497.105 290.955 496.917 292.106C496.824 292.773 496.739 293.17 496.478 293.766C496.15 294.562 495.571 295.957 494.956 297.432C494.229 299.18 493.477 300.987 492.989 302.177C492.765 302.651 492.314 303.622 492.967 304.462C493.241 304.814 493.623 305 494.073 305C494.461 305 494.897 304.857 495.301 304.597C496.055 304.185 497.518 303.386 498.825 302.674L500.593 301.707C501.517 301.204 503.143 300.309 505.026 299.272C510.005 296.533 516.821 292.783 519.232 291.535C519.6 291.373 519.984 291.291 520.373 291.291C521.573 291.291 522.819 292.128 522.877 293.73C522.912 294.615 522.307 295.628 521.502 296.036L521.497 296.039L521.492 296.041C520.618 296.52 518.115 297.889 515.196 299.486C511.543 301.484 507.239 303.84 504.66 305.252L504.654 305.255L504.648 305.259C504.567 305.308 504.485 305.35 504.406 305.391C504.159 305.521 503.904 305.654 503.696 305.945C503.359 306.421 503.311 307.008 503.567 307.515C503.815 308.005 504.304 308.31 504.844 308.31C504.873 308.31 504.902 308.31 504.932 308.308L505.001 308.304L505.063 308.275C507.179 307.305 512.416 304.402 517.036 301.841C520.076 300.156 522.7 298.701 524.01 298.03C524.37 297.847 524.738 297.634 525.127 297.408C526.086 296.854 527.077 296.281 527.955 296.162C528.077 296.143 528.199 296.134 528.32 296.134C529.169 296.134 529.966 296.626 530.4 297.42C530.833 298.214 530.819 299.132 530.363 299.878L530.36 299.883L530.357 299.888C529.906 300.678 528.948 301.174 528.1 301.612C527.963 301.683 527.829 301.752 527.707 301.817C526.066 302.649 520.255 305.658 515.127 308.313C512.352 309.749 509.701 311.123 507.843 312.082C507.614 312.199 507.375 312.352 507.187 312.678C506.906 313.157 506.89 313.691 507.145 314.147C507.404 314.611 507.894 314.899 508.423 314.899C508.687 314.899 508.954 314.825 509.195 314.683C511.441 313.562 514.385 312.015 517.234 310.517C521.918 308.056 526.76 305.511 528.869 304.661C529.107 304.585 529.349 304.547 529.587 304.547C530.455 304.547 531.267 305.06 531.705 305.886C532.13 306.69 532.094 307.618 531.607 308.369C531.308 308.836 530.765 309.304 530.224 309.56L530.218 309.564L530.211 309.567C529.252 310.071 527.188 311.123 524.796 312.34C520.154 314.702 513.795 317.937 510.453 319.759C509.798 320.103 509.4 320.73 509.436 321.354C509.468 321.894 509.822 322.33 510.407 322.553L510.415 322.557L510.423 322.559C510.58 322.611 510.728 322.635 510.876 322.635C511.247 322.635 511.547 322.477 511.865 322.31L511.964 322.258C513.797 321.332 516.515 319.951 519.143 318.615C521.891 317.219 524.486 315.9 525.546 315.368L525.554 315.364L525.563 315.36C526.054 315.081 526.659 314.922 527.222 314.922C527.67 314.922 528.313 315.021 528.836 315.496L528.842 315.501L528.848 315.506C529.399 315.967 529.709 316.657 529.701 317.401C529.692 318.178 529.334 318.925 528.745 319.401C527.177 320.407 523.092 322.641 519.142 324.802C516.318 326.347 513.398 327.944 511.396 329.094C510.778 329.425 510.099 329.801 509.381 330.199C507.999 330.964 506.571 331.756 505.349 332.353C503.478 333.24 501.5 333.773 499.468 333.937C498.999 333.979 498.52 334 498.044 334C492.679 334 487.371 331.334 484.193 327.039C480.874 322.648 479.688 316.645 481.172 311.749C481.519 310.605 482.045 309.501 482.827 308.275C483.129 307.802 483.471 307.303 483.939 306.657C485.81 304.067 487.304 301.093 488.637 298.266C489.356 296.742 489.984 295.156 490.591 293.623C491.13 292.262 491.688 290.854 492.303 289.506C492.688 288.663 493.527 288.139 494.495 288.139" fill="white"/>
<g filter="url(#filter0_d_3616_2378)">
<rect x="206" y="83" width="40" height="40" fill="white"/>
<rect x="208" y="85" width="36" height="36" stroke="#212B32" stroke-width="4"/>
</g>
<path d="M217 104L222.797 109.5L236.797 95.5" stroke="black" stroke-width="4"/>
<defs>
<filter id="filter0_d_3616_2378" x="202" y="79" width="48" height="48" filterUnits="userSpaceOnUse" color-interpolation-filters="sRGB">
<feFlood flood-opacity="0" result="BackgroundImageFix"/>
<feColorMatrix in="SourceAlpha" type="matrix" values="0 0 0 0 0 0 0 0 0 0 0 0 0 0 0 0 0 0 127 0" result="hardAlpha"/>
<feMorphology radius="4" operator="dilate" in="SourceAlpha" result="effect1_dropShadow_3616_2378"/>
<feOffset/>
<feComposite in2="hardAlpha" operator="out"/>
<feColorMatrix type="matrix" values="0 0 0 0 1 0 0 0 0 0.921569 0 0 0 0 0.231373 0 0 0 1 0"/>
<feBlend mode="normal" in2="BackgroundImageFix" result="effect1_dropShadow_3616_2378"/>
<feBlend mode="normal" in="SourceGraphic" in2="effect1_dropShadow_3616_2378" result="shape"/>
</filter>
</defs>
</svg>
