<svg width="690" height="470" viewBox="0 0 690 470" fill="none" xmlns="http://www.w3.org/2000/svg">
<rect width="690" height="470" fill="#005EB8"/>
<path d="M16.4346 136C17.5391 136 18.4346 136.895 18.4346 138C18.4346 139.105 17.5391 140 16.4346 140H12.3984C11.2939 140 10.3984 139.105 10.3984 138C10.3984 136.895 11.2939 136 12.3984 136H16.4346ZM36.6162 136C37.7208 136 38.6162 136.895 38.6162 138C38.6162 139.105 37.7208 140 36.6162 140H28.5439C27.4394 140 26.5439 139.105 26.5439 138C26.5439 136.895 27.4394 136 28.5439 136H36.6162ZM56.7988 136C57.9032 136 58.7988 136.896 58.7988 138C58.7988 139.104 57.9032 140 56.7988 140H48.7256C47.6211 140 46.7256 139.105 46.7256 138C46.7256 136.895 47.6211 136 48.7256 136H56.7988ZM76.9805 136C78.0849 136 78.9805 136.896 78.9805 138C78.9805 139.104 78.0849 140 76.9805 140H68.9072C67.8028 140 66.9072 139.104 66.9072 138C66.9072 136.896 67.8028 136 68.9072 136H76.9805ZM97.1621 136C98.2667 136 99.1621 136.895 99.1621 138C99.1621 139.105 98.2667 140 97.1621 140H89.0889C87.9845 140 87.0889 139.104 87.0889 138C87.0889 136.896 87.9845 136 89.0889 136H97.1621ZM117.344 136C118.448 136 119.344 136.895 119.344 138C119.344 139.105 118.448 140 117.344 140H109.271C108.167 140 107.271 139.105 107.271 138C107.271 136.895 108.167 136 109.271 136H117.344ZM137.525 136C138.63 136 139.525 136.895 139.525 138C139.525 139.105 138.63 140 137.525 140H129.453C128.349 140 127.453 139.105 127.453 138C127.453 136.895 128.349 136 129.453 136H137.525ZM157.708 136C158.812 136 159.708 136.896 159.708 138C159.708 139.104 158.812 140 157.708 140H149.635C148.53 140 147.635 139.105 147.635 138C147.635 136.895 148.53 136 149.635 136H157.708ZM177.89 136C178.994 136 179.89 136.896 179.89 138C179.89 139.104 178.994 140 177.89 140H169.816C168.712 140 167.816 139.104 167.816 138C167.816 136.896 168.712 136 169.816 136H177.89ZM198.071 136C199.176 136 200.071 136.895 200.071 138C200.071 139.105 199.176 140 198.071 140H189.998C188.894 140 187.998 139.104 187.998 138C187.998 136.896 188.894 136 189.998 136H198.071ZM218.253 136C219.357 136 220.253 136.895 220.253 138C220.253 139.105 219.357 140 218.253 140H210.181C209.076 140 208.181 139.105 208.181 138C208.181 136.895 209.076 136 210.181 136H218.253ZM238.435 136C239.539 136 240.435 136.895 240.435 138C240.435 139.105 239.539 140 238.435 140H230.362C229.258 140 228.362 139.105 228.362 138C228.362 136.895 229.258 136 230.362 136H238.435ZM258.616 136C259.721 136 260.616 136.895 260.616 138C260.616 139.105 259.721 140 258.616 140H250.544C249.439 140 248.544 139.105 248.544 138C248.544 136.895 249.439 136 250.544 136H258.616ZM278.799 136C279.903 136 280.799 136.896 280.799 138C280.799 139.104 279.903 140 278.799 140L270.726 140C269.621 140 268.726 139.105 268.726 138C268.726 136.895 269.621 136 270.726 136L278.799 136ZM298.98 136C300.085 136 300.98 136.896 300.98 138C300.98 139.104 300.085 140 298.98 140H290.907C289.803 140 288.907 139.104 288.907 138C288.907 136.896 289.803 136 290.907 136H298.98ZM319.162 136C320.267 136 321.162 136.895 321.162 138C321.162 139.105 320.267 140 319.162 140H311.089C309.984 140 309.089 139.104 309.089 138C309.089 136.896 309.984 136 311.089 136H319.162ZM339.344 136C340.448 136 341.344 136.895 341.344 138C341.344 139.105 340.448 140 339.344 140H331.271C330.167 140 329.271 139.105 329.271 138C329.271 136.895 330.167 136 331.271 136H339.344ZM359.525 136C360.63 136 361.525 136.895 361.525 138C361.525 139.105 360.63 140 359.525 140H351.453C350.349 140 349.453 139.105 349.453 138C349.453 136.895 350.349 136 351.453 136H359.525ZM379.708 136C380.812 136 381.708 136.896 381.708 138C381.708 139.104 380.812 140 379.708 140H371.635C370.53 140 369.635 139.105 369.635 138C369.635 136.895 370.53 136 371.635 136H379.708ZM399.89 136C400.994 136 401.89 136.896 401.89 138C401.89 139.104 400.994 140 399.89 140H391.816C390.712 140 389.816 139.104 389.816 138C389.816 136.896 390.712 136 391.816 136H399.89ZM420.071 136C421.176 136 422.071 136.895 422.071 138C422.071 139.105 421.176 140 420.071 140H411.998C410.894 140 409.998 139.104 409.998 138C409.998 136.896 410.894 136 411.998 136H420.071ZM440.253 136C441.358 136 442.253 136.895 442.253 138C442.253 139.105 441.358 140 440.253 140H432.181C431.076 140 430.181 139.105 430.181 138C430.181 136.895 431.076 136 432.181 136H440.253ZM460.435 136C461.539 136 462.435 136.895 462.435 138C462.435 139.105 461.539 140 460.435 140L452.362 140C451.258 140 450.362 139.105 450.362 138C450.362 136.895 451.258 136 452.362 136H460.435ZM480.616 136C481.721 136 482.616 136.895 482.616 138C482.616 139.105 481.721 140 480.616 140H472.544C471.439 140 470.544 139.105 470.544 138C470.544 136.895 471.439 136 472.544 136H480.616ZM500.799 136C501.903 136 502.799 136.896 502.799 138C502.799 139.104 501.903 140 500.799 140H492.726C491.621 140 490.726 139.105 490.726 138C490.726 136.895 491.621 136 492.726 136H500.799ZM520.98 136C522.085 136 522.98 136.895 522.98 138C522.98 139.105 522.085 140 520.98 140H512.907C511.803 140 510.907 139.104 510.907 138C510.907 136.896 511.803 136 512.907 136H520.98ZM541.162 136C542.267 136 543.162 136.895 543.162 138C543.162 139.105 542.267 140 541.162 140H533.09C531.985 140 531.09 139.105 531.09 138C531.09 136.895 531.985 136 533.09 136H541.162ZM561.344 136C562.448 136 563.344 136.895 563.344 138C563.344 139.105 562.448 140 561.344 140H553.271C552.167 140 551.271 139.105 551.271 138C551.271 136.895 552.167 136 553.271 136H561.344ZM581.525 136C582.63 136 583.525 136.895 583.525 138C583.525 139.105 582.63 140 581.525 140H573.453C572.349 140 571.453 139.105 571.453 138C571.453 136.895 572.349 136 573.453 136H581.525ZM601.708 136C602.812 136 603.708 136.896 603.708 138C603.708 139.104 602.812 140 601.708 140H593.635C592.53 140 591.635 139.105 591.635 138C591.635 136.895 592.53 136 593.635 136H601.708ZM621.89 136C622.994 136 623.89 136.896 623.89 138C623.89 139.104 622.994 140 621.89 140H613.816C612.712 140 611.816 139.104 611.816 138C611.816 136.896 612.712 136 613.816 136H621.89ZM642.071 136C643.176 136 644.071 136.895 644.071 138C644.071 139.105 643.176 140 642.071 140H633.998C632.894 140 631.998 139.104 631.998 138C631.998 136.896 632.894 136 633.998 136H642.071ZM662.253 136C663.357 136 664.253 136.895 664.253 138C664.253 139.105 663.357 140 662.253 140H654.181C653.076 140 652.181 139.105 652.181 138C652.181 136.895 653.076 136 654.181 136H662.253ZM678.398 136C679.503 136 680.398 136.895 680.398 138C680.398 139.105 679.503 140 678.398 140H674.362C673.258 140 672.362 139.105 672.362 138C672.362 136.895 673.258 136 674.362 136H678.398Z" fill="#B2CFE9"/>
<path d="M192 16.0547C192 17.1592 191.105 18.0547 190 18.0547C188.895 18.0547 188 17.1592 188 16.0547L188 12C188 10.8954 188.895 10 190 10C191.105 10 192 10.8954 192 12L192 16.0547ZM192 36.3271C192 37.4317 191.105 38.3271 190 38.3271C188.895 38.3271 188 37.4317 188 36.3271L188 28.2178C188 27.1134 188.896 26.2178 190 26.2178C191.104 26.2178 192 27.1134 192 28.2178L192 36.3271ZM192 56.5996C192 57.7042 191.105 58.5996 190 58.5996C188.895 58.5996 188 57.7042 188 56.5996L188 48.4912C188 47.3866 188.895 46.4912 190 46.4912C191.105 46.4912 192 47.3866 192 48.4912L192 56.5996ZM192 76.873C192 77.9775 191.104 78.873 190 78.873C188.896 78.873 188 77.9775 188 76.873L188 68.7637C188 67.6591 188.895 66.7637 190 66.7637C191.105 66.7637 192 67.6591 192 68.7637L192 76.873ZM192 97.1455C192 98.2501 191.105 99.1455 190 99.1455C188.895 99.1455 188 98.2501 188 97.1455L188 89.0361C188 87.9317 188.896 87.0361 190 87.0361C191.104 87.0361 192 87.9317 192 89.0361L192 97.1455ZM192 117.418C192 118.523 191.105 119.418 190 119.418C188.895 119.418 188 118.523 188 117.418L188 109.31C188 108.205 188.895 107.31 190 107.31C191.105 107.31 192 108.205 192 109.31L192 117.418ZM192 137.69C192 138.795 191.105 139.69 190 139.69C188.895 139.69 188 138.795 188 137.69L188 129.582C188 128.477 188.895 127.582 190 127.582C191.105 127.582 192 128.477 192 129.582L192 137.69ZM192 157.964C192 159.068 191.104 159.964 190 159.964C188.896 159.964 188 159.068 188 157.964L188 149.854C188 148.75 188.895 147.854 190 147.854C191.105 147.854 192 148.75 192 149.854L192 157.964ZM192 178.236C192 179.341 191.105 180.236 190 180.236C188.895 180.236 188 179.341 188 178.236L188 170.127C188 169.023 188.896 168.127 190 168.127C191.104 168.127 192 169.023 192 170.127L192 178.236ZM192 198.509C192 199.613 191.105 200.509 190 200.509C188.895 200.509 188 199.613 188 198.509L188 190.4C188 189.296 188.895 188.4 190 188.4C191.105 188.4 192 189.296 192 190.4L192 198.509ZM192 218.782C192 219.887 191.104 220.782 190 220.782C188.896 220.782 188 219.887 188 218.782L188 210.673C188 209.568 188.895 208.673 190 208.673C191.105 208.673 192 209.568 192 210.673L192 218.782ZM192 239.055C192 240.159 191.105 241.055 190 241.055C188.895 241.055 188 240.159 188 239.055L188 230.945C188 229.841 188.895 228.945 190 228.945C191.105 228.945 192 229.841 192 230.945L192 239.055ZM192 259.327C192 260.432 191.105 261.327 190 261.327C188.895 261.327 188 260.432 188 259.327L188 251.218C188 250.113 188.896 249.218 190 249.218C191.104 249.218 192 250.113 192 251.218L192 259.327ZM192 279.6C192 280.704 191.105 281.6 190 281.6C188.895 281.6 188 280.704 188 279.6L188 271.491C188 270.387 188.895 269.491 190 269.491C191.105 269.491 192 270.387 192 271.491L192 279.6ZM192 299.873C192 300.977 191.104 301.873 190 301.873C188.896 301.873 188 300.977 188 299.873L188 291.764C188 290.659 188.895 289.764 190 289.764C191.105 289.764 192 290.659 192 291.764L192 299.873ZM192 320.146C192 321.25 191.105 322.146 190 322.146C188.895 322.146 188 321.25 188 320.146L188 312.036C188 310.932 188.895 310.036 190 310.036C191.104 310.036 192 310.932 192 312.036L192 320.146ZM192 340.418C192 341.523 191.105 342.418 190 342.418C188.895 342.418 188 341.523 188 340.418L188 332.31C188 331.205 188.895 330.31 190 330.31C191.105 330.31 192 331.205 192 332.31L192 340.418ZM192 360.691C192 361.796 191.104 362.691 190 362.691C188.896 362.691 188 361.796 188 360.691L188 352.582C188 351.477 188.895 350.582 190 350.582C191.105 350.582 192 351.477 192 352.582L192 360.691ZM192 380.964C192 382.068 191.104 382.964 190 382.964C188.895 382.964 188 382.068 188 380.964L188 372.854C188 371.75 188.895 370.854 190 370.854C191.105 370.854 192 371.75 192 372.854L192 380.964ZM192 401.236C192 402.341 191.105 403.236 190 403.236C188.895 403.236 188 402.341 188 401.236L188 393.127C188 392.023 188.896 391.127 190 391.127C191.104 391.127 192 392.023 192 393.127L192 401.236ZM192 421.509C192 422.613 191.105 423.509 190 423.509C188.895 423.509 188 422.613 188 421.509L188 413.4C188 412.296 188.895 411.4 190 411.4C191.105 411.4 192 412.296 192 413.4L192 421.509ZM192 441.782C192 442.887 191.104 443.782 190 443.782C188.896 443.782 188 442.887 188 441.782L188 433.673C188 432.568 188.895 431.673 190 431.673C191.105 431.673 192 432.568 192 433.673L192 441.782ZM192 458C192 459.105 191.105 460 190 460C188.895 460 188 459.105 188 458L188 453.945C188 452.841 188.895 451.945 190 451.945C191.104 451.945 192 452.841 192 453.945L192 458Z" fill="#B2CFE9"/>
<rect x="51" y="79" width="104.108" height="214" rx="12" fill="#669ED4" stroke="#B2CFE9" stroke-width="4" stroke-linejoin="round"/>
<path d="M92.1094 116H62.1094V104H92.1094V116ZM87.9854 104.825C85.8105 104.825 83.636 105.575 83.6357 108.125C83.6357 110.9 87.4602 110.301 87.4609 111.875C87.4609 112.85 86.1854 113 85.3604 113C84.5356 113 83.486 112.775 82.9609 112.476L82.3604 114.5C83.1853 114.8 84.3854 115.025 85.3604 115.025C87.6854 115.025 90.1602 114.35 90.1602 111.65C90.1601 108.725 86.3359 109.175 86.3359 107.825C86.3361 107 87.161 106.851 88.2109 106.851C89.0641 106.851 89.6874 107.023 90.1816 107.217L90.9854 105.275C90.3103 104.975 89.1852 104.825 87.9854 104.825ZM65.0352 105.125L62.9355 114.875H65.4102L66.7607 108.125H66.8359L68.8604 114.875H72.0859L74.1855 105.125H71.7109L70.3604 111.875H70.2852L68.3359 105.125H65.0352ZM75.0859 105.125L73.1357 114.875H75.6855L76.5859 110.676H79.6602L78.8359 114.875H81.4609L83.4854 105.125H80.8604L80.0352 108.801H77.0352L77.7852 105.125H75.0859Z" fill="#2978C3"/>
<path opacity="0.6" d="M153 281C153 286.523 148.523 291 143 291L63 291C57.4772 291 53 286.523 53 281L53 257L153 257L153 281Z" fill="#005EB8"/>
<path d="M133.127 79.5V80.915C133.127 85.0572 129.769 88.415 125.627 88.415H80.4844C76.3422 88.415 72.9844 85.0572 72.9844 80.915V79.5H133.127Z" fill="#B2CFE9" stroke="#B2CFE9"/>
<rect x="358.5" y="52.5" width="278" height="194" rx="3.5" fill="#425563" stroke="#212B32" stroke-width="5" stroke-linejoin="round"/>
<rect x="359" y="54" width="276" height="16" fill="#212B32"/>
<path opacity="0.7" d="M379.65 89.95L398.975 101.9V106.725L379.8 118.675L377.05 114.725L394.175 104.325L377.05 94.075L379.65 89.95ZM402.98 129.15V124.525H427.98V129.15H402.98Z" fill="#D8DDE0"/>
<rect x="103" y="156" width="362" height="259" rx="12" fill="#669ED4" stroke="#F0F5FB" stroke-width="4" stroke-linejoin="round"/>
<path d="M465 178L103 178L103 164C103 159.582 106.582 156 111 156L457 156C461.418 156 465 159.582 465 164L465 178Z" fill="#F0F5FB"/>
<rect x="192" y="158" width="184" height="16" rx="6" fill="#669ED4" fill-opacity="0.5"/>
<circle cx="120" cy="166" r="5" fill="#669ED4" fill-opacity="0.5"/>
<circle cx="135" cy="166" r="5" fill="#669ED4" fill-opacity="0.5"/>
<circle cx="150" cy="166" r="5" fill="#669ED4" fill-opacity="0.5"/>
<rect opacity="0.5" x="105" y="178" width="358" height="46" fill="#005EB8"/>
<path d="M160 209H120V193H160V209ZM154.5 194.101C151.6 194.101 148.7 195.1 148.7 198.5C148.7 202.2 153.8 201.4 153.801 203.5C153.801 204.8 152.1 205 151 205C149.9 205 148.501 204.701 147.801 204.301L147 207C148.1 207.4 149.7 207.7 151 207.7C154.1 207.7 157.4 206.8 157.4 203.2C157.4 199.301 152.301 199.9 152.301 198.101C152.301 197.001 153.401 196.801 154.801 196.801C155.938 196.801 156.769 197.03 157.428 197.288L158.5 194.7C157.6 194.3 156.1 194.101 154.5 194.101ZM123.9 194.5L121.101 207.5H124.4L126.2 198.5H126.301L129 207.5H133.301L136.101 194.5H132.801L131 203.5H130.9L128.301 194.5H123.9ZM137.301 194.5L134.7 207.5H138.101L139.301 201.9H143.4L142.301 207.5H145.801L148.5 194.5H145L143.9 199.4H139.9L140.9 194.5H137.301Z" fill="#7DADDA"/>
<rect x="176" y="252" width="175" height="24" rx="4" fill="#B2CFE9"/>
<rect x="335" y="191" width="113" height="20" rx="4" fill="#669ED4"/>
<rect x="176" y="291" width="137" height="12" rx="6" fill="#B2CFE9"/>
<rect x="176" y="309" width="165" height="12" rx="6" fill="#B2CFE9"/>
<rect x="176" y="327" width="100" height="12" rx="6" fill="#B2CFE9"/>
<rect opacity="0.9" x="206" y="360" width="79" height="12" rx="6" fill="white"/>
<g opacity="0.9">
<path d="M188.001 356C185.522 356 183.131 356.921 181.292 358.584C179.454 360.247 178.299 362.533 178.051 365H189.691L185.741 361.05C185.577 360.859 185.491 360.613 185.501 360.361C185.511 360.109 185.615 359.871 185.793 359.692C185.971 359.514 186.21 359.41 186.462 359.4C186.713 359.391 186.959 359.476 187.151 359.64L192.811 365.29C192.905 365.383 192.979 365.494 193.03 365.615C193.08 365.737 193.107 365.868 193.107 366C193.107 366.132 193.08 366.263 193.03 366.385C192.979 366.506 192.905 366.617 192.811 366.71L187.151 372.36C186.963 372.546 186.71 372.651 186.446 372.651C186.182 372.651 185.928 372.546 185.741 372.36C185.555 372.173 185.45 371.919 185.45 371.655C185.45 371.391 185.555 371.137 185.741 370.95L189.691 367H178.051C178.244 368.925 178.992 370.753 180.204 372.262C181.416 373.771 183.04 374.896 184.878 375.5C186.716 376.104 188.691 376.162 190.561 375.667C192.432 375.171 194.119 374.143 195.417 372.708C196.715 371.273 197.569 369.492 197.875 367.581C198.181 365.67 197.926 363.712 197.141 361.943C196.356 360.174 195.074 358.671 193.452 357.616C191.83 356.562 189.936 356 188.001 356V356Z" fill="white"/>
</g>
<rect x="538" y="116" width="56" height="72" fill="#D9E7F4"/>
<path opacity="0.7" d="M583.224 172H575.784L572.904 164.32H559.32L556.392 172H549.432L562.488 138.496H570.072L583.224 172ZM571.032 159.04L566.184 145.216H566.088L561.24 159.04H571.032Z" fill="#005EB8"/>
<rect x="538" y="218" width="56" height="72" fill="#D9E7F4"/>
<path opacity="0.7" d="M566.456 274H554.888V240.496H566.6C573.416 240.496 577.4 243.424 577.4 249.04C577.4 252.928 574.904 255.808 570.728 256.576V256.672C575.384 257.104 578.408 260.272 578.408 264.304C578.408 270.88 573.704 274 566.456 274ZM561.608 254.032H564.248C568.664 254.032 570.68 252.592 570.68 249.952C570.68 247.408 569.336 245.776 564.68 245.776H561.608V254.032ZM561.608 268.72H564.824C569.192 268.72 571.688 267.184 571.688 264.064C571.688 260.56 569.432 259.024 564.968 259.024H561.608V268.72Z" fill="#005EB8"/>
<rect x="538" y="320" width="56" height="72" fill="#D9E7F4"/>
<path opacity="0.7" d="M578.984 369.904L579.272 375.52C576.776 376.096 574.184 376.576 571.64 376.576C560.168 376.576 553.256 370.624 553.256 359.824C553.256 348.496 560.12 341.92 571.64 341.92C573.944 341.92 576.92 342.4 579.224 343.312L578.744 348.976C576.296 347.584 573.992 347.2 571.496 347.2C564.728 347.2 560.264 352.336 560.264 359.344C560.264 366.4 564.68 371.296 571.64 371.296C573.992 371.296 577.208 370.816 578.984 369.904Z" fill="#005EB8"/>
<g filter="url(#filter0_d_3635_2496)">
<rect x="206" y="83" width="40" height="40" fill="white"/>
<rect x="208" y="85" width="36" height="36" stroke="#212B32" stroke-width="4"/>
</g>
<path d="M217 104L222.797 109.5L236.797 95.5" stroke="black" stroke-width="4"/>
<defs>
<filter id="filter0_d_3635_2496" x="202" y="79" width="48" height="48" filterUnits="userSpaceOnUse" color-interpolation-filters="sRGB">
<feFlood flood-opacity="0" result="BackgroundImageFix"/>
<feColorMatrix in="SourceAlpha" type="matrix" values="0 0 0 0 0 0 0 0 0 0 0 0 0 0 0 0 0 0 127 0" result="hardAlpha"/>
<feMorphology radius="4" operator="dilate" in="SourceAlpha" result="effect1_dropShadow_3635_2496"/>
<feOffset/>
<feComposite in2="hardAlpha" operator="out"/>
<feColorMatrix type="matrix" values="0 0 0 0 1 0 0 0 0 0.921569 0 0 0 0 0.231373 0 0 0 1 0"/>
<feBlend mode="normal" in2="BackgroundImageFix" result="effect1_dropShadow_3635_2496"/>
<feBlend mode="normal" in="SourceGraphic" in2="effect1_dropShadow_3635_2496" result="shape"/>
</filter>
</defs>
</svg>
