<svg width="690" height="470" viewBox="0 0 690 470" fill="none" xmlns="http://www.w3.org/2000/svg">
<rect width="690" height="470" fill="#005EB8"/>
<path d="M16.4346 136C17.5391 136 18.4346 136.895 18.4346 138C18.4346 139.105 17.5391 140 16.4346 140H12.3984C11.2939 140 10.3984 139.105 10.3984 138C10.3984 136.895 11.2939 136 12.3984 136H16.4346ZM36.6162 136C37.7208 136 38.6162 136.895 38.6162 138C38.6162 139.105 37.7208 140 36.6162 140H28.5439C27.4394 140 26.5439 139.105 26.5439 138C26.5439 136.895 27.4394 136 28.5439 136H36.6162ZM56.7988 136C57.9032 136 58.7988 136.896 58.7988 138C58.7988 139.104 57.9032 140 56.7988 140H48.7256C47.6211 140 46.7256 139.105 46.7256 138C46.7256 136.895 47.6211 136 48.7256 136H56.7988ZM76.9805 136C78.0849 136 78.9805 136.896 78.9805 138C78.9805 139.104 78.0849 140 76.9805 140H68.9072C67.8028 140 66.9072 139.104 66.9072 138C66.9072 136.896 67.8028 136 68.9072 136H76.9805ZM97.1621 136C98.2667 136 99.1621 136.895 99.1621 138C99.1621 139.105 98.2667 140 97.1621 140H89.0889C87.9845 140 87.0889 139.104 87.0889 138C87.0889 136.896 87.9845 136 89.0889 136H97.1621ZM117.344 136C118.448 136 119.344 136.895 119.344 138C119.344 139.105 118.448 140 117.344 140H109.271C108.167 140 107.271 139.105 107.271 138C107.271 136.895 108.167 136 109.271 136H117.344ZM137.525 136C138.63 136 139.525 136.895 139.525 138C139.525 139.105 138.63 140 137.525 140H129.453C128.349 140 127.453 139.105 127.453 138C127.453 136.895 128.349 136 129.453 136H137.525ZM157.708 136C158.812 136 159.708 136.896 159.708 138C159.708 139.104 158.812 140 157.708 140H149.635C148.53 140 147.635 139.105 147.635 138C147.635 136.895 148.53 136 149.635 136H157.708ZM177.89 136C178.994 136 179.89 136.896 179.89 138C179.89 139.104 178.994 140 177.89 140H169.816C168.712 140 167.816 139.104 167.816 138C167.816 136.896 168.712 136 169.816 136H177.89ZM198.071 136C199.176 136 200.071 136.895 200.071 138C200.071 139.105 199.176 140 198.071 140H189.998C188.894 140 187.998 139.104 187.998 138C187.998 136.896 188.894 136 189.998 136H198.071ZM218.253 136C219.357 136 220.253 136.895 220.253 138C220.253 139.105 219.357 140 218.253 140H210.181C209.076 140 208.181 139.105 208.181 138C208.181 136.895 209.076 136 210.181 136H218.253ZM238.435 136C239.539 136 240.435 136.895 240.435 138C240.435 139.105 239.539 140 238.435 140H230.362C229.258 140 228.362 139.105 228.362 138C228.362 136.895 229.258 136 230.362 136H238.435ZM258.616 136C259.721 136 260.616 136.895 260.616 138C260.616 139.105 259.721 140 258.616 140H250.544C249.439 140 248.544 139.105 248.544 138C248.544 136.895 249.439 136 250.544 136H258.616ZM278.799 136C279.903 136 280.799 136.896 280.799 138C280.799 139.104 279.903 140 278.799 140L270.726 140C269.621 140 268.726 139.105 268.726 138C268.726 136.895 269.621 136 270.726 136L278.799 136ZM298.98 136C300.085 136 300.98 136.896 300.98 138C300.98 139.104 300.085 140 298.98 140H290.907C289.803 140 288.907 139.104 288.907 138C288.907 136.896 289.803 136 290.907 136H298.98ZM319.162 136C320.267 136 321.162 136.895 321.162 138C321.162 139.105 320.267 140 319.162 140H311.089C309.984 140 309.089 139.104 309.089 138C309.089 136.896 309.984 136 311.089 136H319.162ZM339.344 136C340.448 136 341.344 136.895 341.344 138C341.344 139.105 340.448 140 339.344 140H331.271C330.167 140 329.271 139.105 329.271 138C329.271 136.895 330.167 136 331.271 136H339.344ZM359.525 136C360.63 136 361.525 136.895 361.525 138C361.525 139.105 360.63 140 359.525 140H351.453C350.349 140 349.453 139.105 349.453 138C349.453 136.895 350.349 136 351.453 136H359.525ZM379.708 136C380.812 136 381.708 136.896 381.708 138C381.708 139.104 380.812 140 379.708 140H371.635C370.53 140 369.635 139.105 369.635 138C369.635 136.895 370.53 136 371.635 136H379.708ZM399.89 136C400.994 136 401.89 136.896 401.89 138C401.89 139.104 400.994 140 399.89 140H391.816C390.712 140 389.816 139.104 389.816 138C389.816 136.896 390.712 136 391.816 136H399.89ZM420.071 136C421.176 136 422.071 136.895 422.071 138C422.071 139.105 421.176 140 420.071 140H411.998C410.894 140 409.998 139.104 409.998 138C409.998 136.896 410.894 136 411.998 136H420.071ZM440.253 136C441.358 136 442.253 136.895 442.253 138C442.253 139.105 441.358 140 440.253 140H432.181C431.076 140 430.181 139.105 430.181 138C430.181 136.895 431.076 136 432.181 136H440.253ZM460.435 136C461.539 136 462.435 136.895 462.435 138C462.435 139.105 461.539 140 460.435 140L452.362 140C451.258 140 450.362 139.105 450.362 138C450.362 136.895 451.258 136 452.362 136H460.435ZM480.616 136C481.721 136 482.616 136.895 482.616 138C482.616 139.105 481.721 140 480.616 140H472.544C471.439 140 470.544 139.105 470.544 138C470.544 136.895 471.439 136 472.544 136H480.616ZM500.799 136C501.903 136 502.799 136.896 502.799 138C502.799 139.104 501.903 140 500.799 140H492.726C491.621 140 490.726 139.105 490.726 138C490.726 136.895 491.621 136 492.726 136H500.799ZM520.98 136C522.085 136 522.98 136.895 522.98 138C522.98 139.105 522.085 140 520.98 140H512.907C511.803 140 510.907 139.104 510.907 138C510.907 136.896 511.803 136 512.907 136H520.98ZM541.162 136C542.267 136 543.162 136.895 543.162 138C543.162 139.105 542.267 140 541.162 140H533.09C531.985 140 531.09 139.105 531.09 138C531.09 136.895 531.985 136 533.09 136H541.162ZM561.344 136C562.448 136 563.344 136.895 563.344 138C563.344 139.105 562.448 140 561.344 140H553.271C552.167 140 551.271 139.105 551.271 138C551.271 136.895 552.167 136 553.271 136H561.344ZM581.525 136C582.63 136 583.525 136.895 583.525 138C583.525 139.105 582.63 140 581.525 140H573.453C572.349 140 571.453 139.105 571.453 138C571.453 136.895 572.349 136 573.453 136H581.525ZM601.708 136C602.812 136 603.708 136.896 603.708 138C603.708 139.104 602.812 140 601.708 140H593.635C592.53 140 591.635 139.105 591.635 138C591.635 136.895 592.53 136 593.635 136H601.708ZM621.89 136C622.994 136 623.89 136.896 623.89 138C623.89 139.104 622.994 140 621.89 140H613.816C612.712 140 611.816 139.104 611.816 138C611.816 136.896 612.712 136 613.816 136H621.89ZM642.071 136C643.176 136 644.071 136.895 644.071 138C644.071 139.105 643.176 140 642.071 140H633.998C632.894 140 631.998 139.104 631.998 138C631.998 136.896 632.894 136 633.998 136H642.071ZM662.253 136C663.357 136 664.253 136.895 664.253 138C664.253 139.105 663.357 140 662.253 140H654.181C653.076 140 652.181 139.105 652.181 138C652.181 136.895 653.076 136 654.181 136H662.253ZM678.398 136C679.503 136 680.398 136.895 680.398 138C680.398 139.105 679.503 140 678.398 140H674.362C673.258 140 672.362 139.105 672.362 138C672.362 136.895 673.258 136 674.362 136H678.398Z" fill="#B2CFE9"/>
<path d="M192 16.0547C192 17.1592 191.105 18.0547 190 18.0547C188.895 18.0547 188 17.1592 188 16.0547L188 12C188 10.8954 188.895 10 190 10C191.105 10 192 10.8954 192 12L192 16.0547ZM192 36.3271C192 37.4317 191.105 38.3271 190 38.3271C188.895 38.3271 188 37.4317 188 36.3271L188 28.2178C188 27.1134 188.896 26.2178 190 26.2178C191.104 26.2178 192 27.1134 192 28.2178L192 36.3271ZM192 56.5996C192 57.7042 191.105 58.5996 190 58.5996C188.895 58.5996 188 57.7042 188 56.5996L188 48.4912C188 47.3866 188.895 46.4912 190 46.4912C191.105 46.4912 192 47.3866 192 48.4912L192 56.5996ZM192 76.873C192 77.9775 191.104 78.873 190 78.873C188.896 78.873 188 77.9775 188 76.873L188 68.7637C188 67.6591 188.895 66.7637 190 66.7637C191.105 66.7637 192 67.6591 192 68.7637L192 76.873ZM192 97.1455C192 98.2501 191.105 99.1455 190 99.1455C188.895 99.1455 188 98.2501 188 97.1455L188 89.0361C188 87.9317 188.896 87.0361 190 87.0361C191.104 87.0361 192 87.9317 192 89.0361L192 97.1455ZM192 117.418C192 118.523 191.105 119.418 190 119.418C188.895 119.418 188 118.523 188 117.418L188 109.31C188 108.205 188.895 107.31 190 107.31C191.105 107.31 192 108.205 192 109.31L192 117.418ZM192 137.69C192 138.795 191.105 139.69 190 139.69C188.895 139.69 188 138.795 188 137.69L188 129.582C188 128.477 188.895 127.582 190 127.582C191.105 127.582 192 128.477 192 129.582L192 137.69ZM192 157.964C192 159.068 191.104 159.964 190 159.964C188.896 159.964 188 159.068 188 157.964L188 149.854C188 148.75 188.895 147.854 190 147.854C191.105 147.854 192 148.75 192 149.854L192 157.964ZM192 178.236C192 179.341 191.105 180.236 190 180.236C188.895 180.236 188 179.341 188 178.236L188 170.127C188 169.023 188.896 168.127 190 168.127C191.104 168.127 192 169.023 192 170.127L192 178.236ZM192 198.509C192 199.613 191.105 200.509 190 200.509C188.895 200.509 188 199.613 188 198.509L188 190.4C188 189.296 188.895 188.4 190 188.4C191.105 188.4 192 189.296 192 190.4L192 198.509ZM192 218.782C192 219.887 191.104 220.782 190 220.782C188.896 220.782 188 219.887 188 218.782L188 210.673C188 209.568 188.895 208.673 190 208.673C191.105 208.673 192 209.568 192 210.673L192 218.782ZM192 239.055C192 240.159 191.105 241.055 190 241.055C188.895 241.055 188 240.159 188 239.055L188 230.945C188 229.841 188.895 228.945 190 228.945C191.105 228.945 192 229.841 192 230.945L192 239.055ZM192 259.327C192 260.432 191.105 261.327 190 261.327C188.895 261.327 188 260.432 188 259.327L188 251.218C188 250.113 188.896 249.218 190 249.218C191.104 249.218 192 250.113 192 251.218L192 259.327ZM192 279.6C192 280.704 191.105 281.6 190 281.6C188.895 281.6 188 280.704 188 279.6L188 271.491C188 270.387 188.895 269.491 190 269.491C191.105 269.491 192 270.387 192 271.491L192 279.6ZM192 299.873C192 300.977 191.104 301.873 190 301.873C188.896 301.873 188 300.977 188 299.873L188 291.764C188 290.659 188.895 289.764 190 289.764C191.105 289.764 192 290.659 192 291.764L192 299.873ZM192 320.146C192 321.25 191.105 322.146 190 322.146C188.895 322.146 188 321.25 188 320.146L188 312.036C188 310.932 188.895 310.036 190 310.036C191.104 310.036 192 310.932 192 312.036L192 320.146ZM192 340.418C192 341.523 191.105 342.418 190 342.418C188.895 342.418 188 341.523 188 340.418L188 332.31C188 331.205 188.895 330.31 190 330.31C191.105 330.31 192 331.205 192 332.31L192 340.418ZM192 360.691C192 361.796 191.104 362.691 190 362.691C188.896 362.691 188 361.796 188 360.691L188 352.582C188 351.477 188.895 350.582 190 350.582C191.105 350.582 192 351.477 192 352.582L192 360.691ZM192 380.964C192 382.068 191.104 382.964 190 382.964C188.895 382.964 188 382.068 188 380.964L188 372.854C188 371.75 188.895 370.854 190 370.854C191.105 370.854 192 371.75 192 372.854L192 380.964ZM192 401.236C192 402.341 191.105 403.236 190 403.236C188.895 403.236 188 402.341 188 401.236L188 393.127C188 392.023 188.896 391.127 190 391.127C191.104 391.127 192 392.023 192 393.127L192 401.236ZM192 421.509C192 422.613 191.105 423.509 190 423.509C188.895 423.509 188 422.613 188 421.509L188 413.4C188 412.296 188.895 411.4 190 411.4C191.105 411.4 192 412.296 192 413.4L192 421.509ZM192 441.782C192 442.887 191.104 443.782 190 443.782C188.896 443.782 188 442.887 188 441.782L188 433.673C188 432.568 188.895 431.673 190 431.673C191.105 431.673 192 432.568 192 433.673L192 441.782ZM192 458C192 459.105 191.105 460 190 460C188.895 460 188 459.105 188 458L188 453.945C188 452.841 188.895 451.945 190 451.945C191.104 451.945 192 452.841 192 453.945L192 458Z" fill="#B2CFE9"/>
<rect x="49" y="79" width="104.108" height="214" rx="12" fill="#669ED4" stroke="#B2CFE9" stroke-width="4" stroke-linejoin="round"/>
<path d="M90.1094 116H60.1094V104H90.1094V116ZM85.9854 104.825C83.8105 104.825 81.636 105.575 81.6357 108.125C81.6357 110.9 85.4602 110.301 85.4609 111.875C85.4609 112.85 84.1854 113 83.3604 113C82.5356 113 81.486 112.775 80.9609 112.476L80.3604 114.5C81.1853 114.8 82.3854 115.025 83.3604 115.025C85.6854 115.025 88.1602 114.35 88.1602 111.65C88.1601 108.725 84.3359 109.175 84.3359 107.825C84.3361 107 85.161 106.851 86.2109 106.851C87.0641 106.851 87.6874 107.023 88.1816 107.217L88.9854 105.275C88.3103 104.975 87.1852 104.825 85.9854 104.825ZM63.0352 105.125L60.9355 114.875H63.4102L64.7607 108.125H64.8359L66.8604 114.875H70.0859L72.1855 105.125H69.7109L68.3604 111.875H68.2852L66.3359 105.125H63.0352ZM73.0859 105.125L71.1357 114.875H73.6855L74.5859 110.676H77.6602L76.8359 114.875H79.4609L81.4854 105.125H78.8604L78.0352 108.801H75.0352L75.7852 105.125H73.0859Z" fill="#2978C3"/>
<path opacity="0.6" d="M142.457 290.848L59.6543 290.848C54.9599 290.848 51.1543 287.042 51.1543 282.348L51.1543 257.972L150.957 257.972L150.957 282.348C150.957 287.042 147.151 290.848 142.457 290.848Z" fill="#005EB8" stroke="#B2CFE9"/>
<path d="M131.127 79.5V80.915C131.127 85.0572 127.769 88.415 123.627 88.415H78.4844C74.3422 88.415 70.9844 85.0572 70.9844 80.915V79.5H131.127Z" fill="#B2CFE9" stroke="#B2CFE9"/>
<rect x="360.5" y="52.5" width="277" height="194" rx="3.5" fill="#425563" stroke="#212B32" stroke-width="5" stroke-linejoin="round"/>
<rect x="361" y="54" width="276" height="16" fill="#212B32"/>
<path opacity="0.7" d="M381.65 89.95L400.975 101.9V106.725L381.8 118.675L379.05 114.725L396.175 104.325L379.05 94.075L381.65 89.95ZM404.98 129.15V124.525H429.98V129.15H404.98Z" fill="#D8DDE0"/>
<rect x="85" y="161" width="362" height="259" rx="12" fill="#669ED4" stroke="#F0F5FB" stroke-width="4" stroke-linejoin="round"/>
<path d="M447 183L85 183L85 169C85 164.582 88.5817 161 93 161L439 161C443.418 161 447 164.582 447 169L447 183Z" fill="#F0F5FB"/>
<rect x="174" y="163" width="184" height="16" rx="6" fill="#669ED4" fill-opacity="0.5"/>
<circle cx="102" cy="171" r="5" fill="#669ED4" fill-opacity="0.5"/>
<circle cx="117" cy="171" r="5" fill="#669ED4" fill-opacity="0.5"/>
<circle cx="132" cy="171" r="5" fill="#669ED4" fill-opacity="0.5"/>
<rect opacity="0.5" x="87" y="183" width="358" height="46" fill="#005EB8"/>
<path d="M142 214H102V198H142V214ZM136.5 199.101C133.6 199.101 130.7 200.1 130.7 203.5C130.7 207.2 135.8 206.4 135.801 208.5C135.801 209.8 134.1 210 133 210C131.9 210 130.501 209.701 129.801 209.301L129 212C130.1 212.4 131.7 212.7 133 212.7C136.1 212.7 139.4 211.8 139.4 208.2C139.4 204.301 134.301 204.9 134.301 203.101C134.301 202.001 135.401 201.801 136.801 201.801C137.938 201.801 138.769 202.03 139.428 202.288L140.5 199.7C139.6 199.3 138.1 199.101 136.5 199.101ZM105.9 199.5L103.101 212.5H106.4L108.2 203.5H108.301L111 212.5H115.301L118.101 199.5H114.801L113 208.5H112.9L110.301 199.5H105.9ZM119.301 199.5L116.7 212.5H120.101L121.301 206.9H125.4L124.301 212.5H127.801L130.5 199.5H127L125.9 204.4H121.9L122.9 199.5H119.301Z" fill="#7DADDA"/>
<rect x="158" y="253" width="175" height="24" rx="4" fill="#B2CFE9"/>
<rect x="317" y="196" width="113" height="20" rx="4" fill="#669ED4"/>
<rect x="158" y="292" width="137" height="12" rx="6" fill="#B2CFE9"/>
<rect x="158" y="310" width="165" height="12" rx="6" fill="#B2CFE9"/>
<rect x="158" y="328" width="100" height="12" rx="6" fill="#B2CFE9"/>
<rect opacity="0.9" x="188" y="361" width="79" height="12" rx="6" fill="white"/>
<g opacity="0.9">
<path d="M170.001 357C167.522 357 165.131 357.921 163.292 359.584C161.454 361.247 160.299 363.533 160.051 366H171.691L167.741 362.05C167.577 361.859 167.491 361.613 167.501 361.361C167.511 361.109 167.615 360.871 167.793 360.692C167.971 360.514 168.21 360.41 168.462 360.4C168.713 360.391 168.959 360.476 169.151 360.64L174.811 366.29C174.905 366.383 174.979 366.494 175.03 366.615C175.08 366.737 175.107 366.868 175.107 367C175.107 367.132 175.08 367.263 175.03 367.385C174.979 367.506 174.905 367.617 174.811 367.71L169.151 373.36C168.963 373.546 168.71 373.651 168.446 373.651C168.182 373.651 167.928 373.546 167.741 373.36C167.555 373.173 167.45 372.919 167.45 372.655C167.45 372.391 167.555 372.137 167.741 371.95L171.691 368H160.051C160.244 369.925 160.992 371.753 162.204 373.262C163.416 374.771 165.04 375.896 166.878 376.5C168.716 377.104 170.691 377.162 172.561 376.667C174.432 376.171 176.119 375.143 177.417 373.708C178.715 372.273 179.569 370.492 179.875 368.581C180.181 366.67 179.926 364.712 179.141 362.943C178.356 361.174 177.074 359.671 175.452 358.616C173.83 357.562 171.936 357 170.001 357V357Z" fill="white"/>
</g>
<rect x="552" y="116" width="56" height="72" fill="#D9E7F4"/>
<path opacity="0.7" d="M597.224 172H589.784L586.904 164.32H573.32L570.392 172H563.432L576.488 138.496H584.072L597.224 172ZM585.032 159.04L580.184 145.216H580.088L575.24 159.04H585.032Z" fill="#005EB8"/>
<rect x="552" y="218" width="56" height="72" fill="#D9E7F4"/>
<path opacity="0.7" d="M580.456 274H568.888V240.496H580.6C587.416 240.496 591.4 243.424 591.4 249.04C591.4 252.928 588.904 255.808 584.728 256.576V256.672C589.384 257.104 592.408 260.272 592.408 264.304C592.408 270.88 587.704 274 580.456 274ZM575.608 254.032H578.248C582.664 254.032 584.68 252.592 584.68 249.952C584.68 247.408 583.336 245.776 578.68 245.776H575.608V254.032ZM575.608 268.72H578.824C583.192 268.72 585.688 267.184 585.688 264.064C585.688 260.56 583.432 259.024 578.968 259.024H575.608V268.72Z" fill="#005EB8"/>
<rect x="552" y="320" width="56" height="72" fill="#D9E7F4"/>
<path opacity="0.7" d="M592.984 369.904L593.272 375.52C590.776 376.096 588.184 376.576 585.64 376.576C574.168 376.576 567.256 370.624 567.256 359.824C567.256 348.496 574.12 341.92 585.64 341.92C587.944 341.92 590.92 342.4 593.224 343.312L592.744 348.976C590.296 347.584 587.992 347.2 585.496 347.2C578.728 347.2 574.264 352.336 574.264 359.344C574.264 366.4 578.68 371.296 585.64 371.296C587.992 371.296 591.208 370.816 592.984 369.904Z" fill="#005EB8"/>
<path opacity="0.85" d="M497.31 270C497.848 270 498.367 270.177 498.807 270.508C499.466 271.018 499.849 271.861 499.805 272.711C499.77 273.423 499.285 273.965 498.771 274.54C498.614 274.716 498.452 274.898 498.303 275.086C497.288 276.359 496.22 277.63 495.188 278.859C494.682 279.461 494.158 280.084 493.647 280.7L493.64 280.708L493.634 280.717C493.379 281.062 493.28 281.442 493.347 281.815C493.418 282.206 493.595 282.531 493.88 282.782C494.131 283.002 494.459 283.122 494.802 283.122C494.835 283.122 494.914 283.122 495.004 283.083C495.361 283.029 495.67 282.848 495.881 282.568L497.201 281.029L497.533 280.641L500.213 277.515C500.909 276.704 501.565 275.847 502.2 275.018C502.629 274.457 503.072 273.877 503.522 273.318L503.629 273.184C504.212 272.459 504.815 271.708 505.635 271.466C505.862 271.399 506.097 271.366 506.334 271.366C506.903 271.366 507.466 271.562 507.916 271.921C508.951 272.744 509.164 274.3 508.392 275.389C506.663 277.838 504.514 280.074 502.436 282.236C501.66 283.043 500.86 283.877 500.096 284.706L500.092 284.711L500.088 284.716C499.833 285.014 499.716 285.389 499.753 285.806C499.791 286.187 499.977 286.549 500.262 286.802C500.513 287.022 500.842 287.143 501.185 287.143C501.615 287.143 502.005 286.97 502.275 286.663L508.246 280.182C508.258 280.17 508.273 280.156 508.291 280.143C508.495 279.984 508.691 279.795 508.818 279.636L508.884 279.551C508.906 279.533 508.937 279.505 508.964 279.474C509.443 278.937 510.128 278.629 510.843 278.629C511.462 278.629 512.052 278.86 512.507 279.278C512.994 279.726 513.291 280.354 513.341 281.044C513.361 281.681 513.175 282.269 512.804 282.748C512.766 282.782 512.733 282.817 512.704 282.849L505.098 290.717L505.09 290.724L505.083 290.733C504.828 291.031 504.711 291.406 504.748 291.823C504.788 292.219 504.954 292.544 505.257 292.819C505.508 293.039 505.837 293.159 506.18 293.159C506.908 293.159 507.407 292.595 507.808 292.142C507.895 292.044 507.978 291.951 508.057 291.87L508.234 291.688C508.772 291.134 509.33 290.561 509.868 289.986C509.946 289.904 510.023 289.82 510.1 289.735C510.593 289.195 511.103 288.637 511.777 288.506C511.888 288.485 512.002 288.474 512.116 288.474C512.792 288.474 513.557 288.866 514.212 289.55C514.428 289.776 514.529 290.09 514.483 290.389C514.444 290.653 514.292 290.871 514.059 290.998C514.041 291.007 500.758 298.271 500.188 298.583C500.142 298.609 500.105 298.636 500.076 298.658L500.07 298.662L497.723 299.943C497.668 299.973 497.61 299.989 497.554 299.989C497.438 299.989 497.324 299.924 497.256 299.821C497.209 299.75 497.167 299.636 497.227 299.487L499.522 293.883C499.537 293.848 499.549 293.811 499.56 293.775C500.257 291.468 500.201 288.113 497.752 286.246C496.808 285.527 495.694 285.147 494.528 285.147C494.267 285.147 494.002 285.166 493.738 285.204C492.314 285.415 491.065 286.167 490.224 287.316C489.308 288.528 488.834 290.142 488.375 291.702L488.335 291.842C488.107 292.582 487.835 293.442 487.551 294.207C486.131 298.016 484.065 301.201 481.878 304.573C481.333 305.413 480.769 306.281 480.224 307.15C479.94 307.602 479.681 308.075 479.457 308.554C478.892 309.757 478.281 311.197 478.028 312.765C477.862 313.795 477.77 314.85 477.757 315.901C477.757 315.943 477.755 316.016 477.751 316.115C477.741 316.443 477.725 316.993 477.731 317.522C477.733 317.648 477.677 317.733 477.63 317.781C477.562 317.852 477.47 317.891 477.377 317.891C477.322 317.891 477.268 317.878 477.217 317.849C476.25 317.329 475.322 316.708 474.459 316.005C471.823 313.869 469.865 311.014 468.796 307.755C468.234 305.986 467.72 303.906 468.175 301.88C469.294 296.405 469.858 291.822 469.946 287.457C469.986 285.518 469.907 283.561 469.828 281.667L469.824 281.572C469.76 280.02 469.802 278.677 470.954 277.942C471.359 277.703 471.812 277.577 472.265 277.577C472.466 277.577 472.663 277.602 472.86 277.654C473.994 277.925 474.657 278.736 475.078 280.367C475.33 281.345 475.336 282.348 475.344 283.41C475.344 283.567 475.345 283.723 475.348 283.879C475.357 284.664 475.358 285.461 475.359 286.233C475.359 286.696 475.36 287.159 475.363 287.621C475.37 289.082 475.417 290.563 475.506 292.15C475.522 292.455 475.544 292.832 475.729 293.171C475.935 293.547 476.338 293.771 476.807 293.771C477.058 293.771 477.298 293.705 477.503 293.582C477.594 293.526 477.688 293.452 477.782 293.361C478.284 292.876 478.701 292.278 479.104 291.7C479.317 291.395 479.517 291.107 479.729 290.838C480.126 290.329 480.538 289.81 480.937 289.306C481.196 288.979 481.455 288.653 481.709 288.332L482.839 286.898C482.912 286.809 482.975 286.709 483.022 286.605L495.097 271.263C495.097 271.263 495.102 271.256 495.112 271.248C495.195 271.175 495.264 271.1 495.322 271.019C495.739 270.472 496.321 270.121 496.962 270.028C497.078 270.011 497.197 270.002 497.314 270.002M494.494 288.139C495.183 288.139 495.82 288.401 496.292 288.877L496.304 288.889L496.316 288.899C497.044 289.514 497.105 290.955 496.917 292.106C496.824 292.773 496.739 293.17 496.478 293.766C496.15 294.562 495.571 295.957 494.956 297.432C494.229 299.18 493.477 300.987 492.989 302.177C492.765 302.651 492.314 303.622 492.967 304.462C493.241 304.814 493.623 305 494.073 305C494.461 305 494.897 304.857 495.301 304.597C496.055 304.185 497.518 303.386 498.825 302.674L500.593 301.707C501.517 301.204 503.143 300.309 505.026 299.272C510.005 296.533 516.821 292.783 519.232 291.535C519.6 291.373 519.984 291.291 520.373 291.291C521.573 291.291 522.819 292.128 522.877 293.73C522.912 294.615 522.307 295.628 521.502 296.036L521.497 296.039L521.492 296.041C520.618 296.52 518.115 297.889 515.196 299.486C511.543 301.484 507.239 303.84 504.66 305.252L504.654 305.255L504.648 305.259C504.567 305.308 504.485 305.35 504.406 305.391C504.159 305.521 503.904 305.654 503.696 305.945C503.359 306.421 503.311 307.008 503.567 307.515C503.815 308.005 504.304 308.31 504.844 308.31C504.873 308.31 504.902 308.31 504.932 308.308L505.001 308.304L505.063 308.275C507.179 307.305 512.416 304.402 517.036 301.841C520.076 300.156 522.7 298.701 524.01 298.03C524.37 297.847 524.738 297.634 525.127 297.408C526.086 296.854 527.077 296.281 527.955 296.162C528.077 296.143 528.199 296.134 528.32 296.134C529.169 296.134 529.966 296.626 530.4 297.42C530.833 298.214 530.819 299.132 530.363 299.878L530.36 299.883L530.357 299.888C529.906 300.678 528.948 301.174 528.1 301.612C527.963 301.683 527.829 301.752 527.707 301.817C526.066 302.649 520.255 305.658 515.127 308.313C512.352 309.749 509.701 311.123 507.843 312.082C507.614 312.199 507.375 312.352 507.187 312.678C506.906 313.157 506.89 313.691 507.145 314.147C507.404 314.611 507.894 314.899 508.423 314.899C508.687 314.899 508.954 314.825 509.195 314.683C511.441 313.562 514.385 312.015 517.234 310.517C521.918 308.056 526.76 305.511 528.869 304.661C529.107 304.585 529.349 304.547 529.587 304.547C530.455 304.547 531.267 305.06 531.705 305.886C532.13 306.69 532.094 307.618 531.607 308.369C531.308 308.836 530.765 309.304 530.224 309.56L530.218 309.564L530.211 309.567C529.252 310.071 527.188 311.123 524.796 312.34C520.154 314.702 513.795 317.937 510.453 319.759C509.798 320.103 509.4 320.73 509.436 321.354C509.468 321.894 509.822 322.33 510.407 322.553L510.415 322.557L510.423 322.559C510.58 322.611 510.728 322.635 510.876 322.635C511.247 322.635 511.547 322.477 511.865 322.31L511.964 322.258C513.797 321.332 516.515 319.951 519.143 318.615C521.891 317.219 524.486 315.9 525.546 315.368L525.554 315.364L525.563 315.36C526.054 315.081 526.659 314.922 527.222 314.922C527.67 314.922 528.313 315.021 528.836 315.496L528.842 315.501L528.848 315.506C529.399 315.967 529.709 316.657 529.701 317.401C529.692 318.178 529.334 318.925 528.745 319.401C527.177 320.407 523.092 322.641 519.142 324.802C516.318 326.347 513.398 327.944 511.396 329.094C510.778 329.425 510.099 329.801 509.381 330.199C507.999 330.964 506.571 331.756 505.349 332.353C503.478 333.24 501.5 333.773 499.468 333.937C498.999 333.979 498.52 334 498.044 334C492.679 334 487.371 331.334 484.193 327.039C480.874 322.648 479.688 316.645 481.172 311.749C481.519 310.605 482.045 309.501 482.827 308.275C483.129 307.802 483.471 307.303 483.939 306.657C485.81 304.067 487.304 301.093 488.637 298.266C489.356 296.742 489.984 295.156 490.591 293.623C491.13 292.262 491.688 290.854 492.303 289.506C492.688 288.663 493.527 288.139 494.495 288.139" fill="white"/>
<g filter="url(#filter0_d_3624_2433)">
<rect x="206" y="83" width="40" height="40" fill="white"/>
<rect x="208" y="85" width="36" height="36" stroke="#212B32" stroke-width="4"/>
</g>
<path d="M217 104L222.797 109.5L236.797 95.5" stroke="black" stroke-width="4"/>
<defs>
<filter id="filter0_d_3624_2433" x="202" y="79" width="48" height="48" filterUnits="userSpaceOnUse" color-interpolation-filters="sRGB">
<feFlood flood-opacity="0" result="BackgroundImageFix"/>
<feColorMatrix in="SourceAlpha" type="matrix" values="0 0 0 0 0 0 0 0 0 0 0 0 0 0 0 0 0 0 127 0" result="hardAlpha"/>
<feMorphology radius="4" operator="dilate" in="SourceAlpha" result="effect1_dropShadow_3624_2433"/>
<feOffset/>
<feComposite in2="hardAlpha" operator="out"/>
<feColorMatrix type="matrix" values="0 0 0 0 1 0 0 0 0 0.921569 0 0 0 0 0.231373 0 0 0 1 0"/>
<feBlend mode="normal" in2="BackgroundImageFix" result="effect1_dropShadow_3624_2433"/>
<feBlend mode="normal" in="SourceGraphic" in2="effect1_dropShadow_3624_2433" result="shape"/>
</filter>
</defs>
</svg>
